%TF.GenerationSoftware,KiCad,Pcbnew,7.0.10*%
%TF.CreationDate,2024-05-08T18:11:24-05:00*%
%TF.ProjectId,pk16,706b3136-2e6b-4696-9361-645f70636258,rev?*%
%TF.SameCoordinates,Original*%
%TF.FileFunction,Legend,Top*%
%TF.FilePolarity,Positive*%
%FSLAX46Y46*%
G04 Gerber Fmt 4.6, Leading zero omitted, Abs format (unit mm)*
G04 Created by KiCad (PCBNEW 7.0.10) date 2024-05-08 18:11:24*
%MOMM*%
%LPD*%
G01*
G04 APERTURE LIST*
%ADD10C,0.150000*%
%ADD11C,0.120000*%
G04 APERTURE END LIST*
D10*
X23356667Y-66987200D02*
X23499524Y-67034819D01*
X23499524Y-67034819D02*
X23737619Y-67034819D01*
X23737619Y-67034819D02*
X23832857Y-66987200D01*
X23832857Y-66987200D02*
X23880476Y-66939580D01*
X23880476Y-66939580D02*
X23928095Y-66844342D01*
X23928095Y-66844342D02*
X23928095Y-66749104D01*
X23928095Y-66749104D02*
X23880476Y-66653866D01*
X23880476Y-66653866D02*
X23832857Y-66606247D01*
X23832857Y-66606247D02*
X23737619Y-66558628D01*
X23737619Y-66558628D02*
X23547143Y-66511009D01*
X23547143Y-66511009D02*
X23451905Y-66463390D01*
X23451905Y-66463390D02*
X23404286Y-66415771D01*
X23404286Y-66415771D02*
X23356667Y-66320533D01*
X23356667Y-66320533D02*
X23356667Y-66225295D01*
X23356667Y-66225295D02*
X23404286Y-66130057D01*
X23404286Y-66130057D02*
X23451905Y-66082438D01*
X23451905Y-66082438D02*
X23547143Y-66034819D01*
X23547143Y-66034819D02*
X23785238Y-66034819D01*
X23785238Y-66034819D02*
X23928095Y-66082438D01*
X24261429Y-66034819D02*
X24499524Y-67034819D01*
X24499524Y-67034819D02*
X24690000Y-66320533D01*
X24690000Y-66320533D02*
X24880476Y-67034819D01*
X24880476Y-67034819D02*
X25118572Y-66034819D01*
X25975714Y-66034819D02*
X25499524Y-66034819D01*
X25499524Y-66034819D02*
X25451905Y-66511009D01*
X25451905Y-66511009D02*
X25499524Y-66463390D01*
X25499524Y-66463390D02*
X25594762Y-66415771D01*
X25594762Y-66415771D02*
X25832857Y-66415771D01*
X25832857Y-66415771D02*
X25928095Y-66463390D01*
X25928095Y-66463390D02*
X25975714Y-66511009D01*
X25975714Y-66511009D02*
X26023333Y-66606247D01*
X26023333Y-66606247D02*
X26023333Y-66844342D01*
X26023333Y-66844342D02*
X25975714Y-66939580D01*
X25975714Y-66939580D02*
X25928095Y-66987200D01*
X25928095Y-66987200D02*
X25832857Y-67034819D01*
X25832857Y-67034819D02*
X25594762Y-67034819D01*
X25594762Y-67034819D02*
X25499524Y-66987200D01*
X25499524Y-66987200D02*
X25451905Y-66939580D01*
X23356667Y-56827200D02*
X23499524Y-56874819D01*
X23499524Y-56874819D02*
X23737619Y-56874819D01*
X23737619Y-56874819D02*
X23832857Y-56827200D01*
X23832857Y-56827200D02*
X23880476Y-56779580D01*
X23880476Y-56779580D02*
X23928095Y-56684342D01*
X23928095Y-56684342D02*
X23928095Y-56589104D01*
X23928095Y-56589104D02*
X23880476Y-56493866D01*
X23880476Y-56493866D02*
X23832857Y-56446247D01*
X23832857Y-56446247D02*
X23737619Y-56398628D01*
X23737619Y-56398628D02*
X23547143Y-56351009D01*
X23547143Y-56351009D02*
X23451905Y-56303390D01*
X23451905Y-56303390D02*
X23404286Y-56255771D01*
X23404286Y-56255771D02*
X23356667Y-56160533D01*
X23356667Y-56160533D02*
X23356667Y-56065295D01*
X23356667Y-56065295D02*
X23404286Y-55970057D01*
X23404286Y-55970057D02*
X23451905Y-55922438D01*
X23451905Y-55922438D02*
X23547143Y-55874819D01*
X23547143Y-55874819D02*
X23785238Y-55874819D01*
X23785238Y-55874819D02*
X23928095Y-55922438D01*
X24261429Y-55874819D02*
X24499524Y-56874819D01*
X24499524Y-56874819D02*
X24690000Y-56160533D01*
X24690000Y-56160533D02*
X24880476Y-56874819D01*
X24880476Y-56874819D02*
X25118572Y-55874819D01*
X25928095Y-56208152D02*
X25928095Y-56874819D01*
X25690000Y-55827200D02*
X25451905Y-56541485D01*
X25451905Y-56541485D02*
X26070952Y-56541485D01*
X23356667Y-46667200D02*
X23499524Y-46714819D01*
X23499524Y-46714819D02*
X23737619Y-46714819D01*
X23737619Y-46714819D02*
X23832857Y-46667200D01*
X23832857Y-46667200D02*
X23880476Y-46619580D01*
X23880476Y-46619580D02*
X23928095Y-46524342D01*
X23928095Y-46524342D02*
X23928095Y-46429104D01*
X23928095Y-46429104D02*
X23880476Y-46333866D01*
X23880476Y-46333866D02*
X23832857Y-46286247D01*
X23832857Y-46286247D02*
X23737619Y-46238628D01*
X23737619Y-46238628D02*
X23547143Y-46191009D01*
X23547143Y-46191009D02*
X23451905Y-46143390D01*
X23451905Y-46143390D02*
X23404286Y-46095771D01*
X23404286Y-46095771D02*
X23356667Y-46000533D01*
X23356667Y-46000533D02*
X23356667Y-45905295D01*
X23356667Y-45905295D02*
X23404286Y-45810057D01*
X23404286Y-45810057D02*
X23451905Y-45762438D01*
X23451905Y-45762438D02*
X23547143Y-45714819D01*
X23547143Y-45714819D02*
X23785238Y-45714819D01*
X23785238Y-45714819D02*
X23928095Y-45762438D01*
X24261429Y-45714819D02*
X24499524Y-46714819D01*
X24499524Y-46714819D02*
X24690000Y-46000533D01*
X24690000Y-46000533D02*
X24880476Y-46714819D01*
X24880476Y-46714819D02*
X25118572Y-45714819D01*
X25404286Y-45714819D02*
X26023333Y-45714819D01*
X26023333Y-45714819D02*
X25690000Y-46095771D01*
X25690000Y-46095771D02*
X25832857Y-46095771D01*
X25832857Y-46095771D02*
X25928095Y-46143390D01*
X25928095Y-46143390D02*
X25975714Y-46191009D01*
X25975714Y-46191009D02*
X26023333Y-46286247D01*
X26023333Y-46286247D02*
X26023333Y-46524342D01*
X26023333Y-46524342D02*
X25975714Y-46619580D01*
X25975714Y-46619580D02*
X25928095Y-46667200D01*
X25928095Y-46667200D02*
X25832857Y-46714819D01*
X25832857Y-46714819D02*
X25547143Y-46714819D01*
X25547143Y-46714819D02*
X25451905Y-46667200D01*
X25451905Y-46667200D02*
X25404286Y-46619580D01*
X24066667Y-36797200D02*
X24209524Y-36844819D01*
X24209524Y-36844819D02*
X24447619Y-36844819D01*
X24447619Y-36844819D02*
X24542857Y-36797200D01*
X24542857Y-36797200D02*
X24590476Y-36749580D01*
X24590476Y-36749580D02*
X24638095Y-36654342D01*
X24638095Y-36654342D02*
X24638095Y-36559104D01*
X24638095Y-36559104D02*
X24590476Y-36463866D01*
X24590476Y-36463866D02*
X24542857Y-36416247D01*
X24542857Y-36416247D02*
X24447619Y-36368628D01*
X24447619Y-36368628D02*
X24257143Y-36321009D01*
X24257143Y-36321009D02*
X24161905Y-36273390D01*
X24161905Y-36273390D02*
X24114286Y-36225771D01*
X24114286Y-36225771D02*
X24066667Y-36130533D01*
X24066667Y-36130533D02*
X24066667Y-36035295D01*
X24066667Y-36035295D02*
X24114286Y-35940057D01*
X24114286Y-35940057D02*
X24161905Y-35892438D01*
X24161905Y-35892438D02*
X24257143Y-35844819D01*
X24257143Y-35844819D02*
X24495238Y-35844819D01*
X24495238Y-35844819D02*
X24638095Y-35892438D01*
X24971429Y-35844819D02*
X25209524Y-36844819D01*
X25209524Y-36844819D02*
X25400000Y-36130533D01*
X25400000Y-36130533D02*
X25590476Y-36844819D01*
X25590476Y-36844819D02*
X25828572Y-35844819D01*
X26161905Y-35940057D02*
X26209524Y-35892438D01*
X26209524Y-35892438D02*
X26304762Y-35844819D01*
X26304762Y-35844819D02*
X26542857Y-35844819D01*
X26542857Y-35844819D02*
X26638095Y-35892438D01*
X26638095Y-35892438D02*
X26685714Y-35940057D01*
X26685714Y-35940057D02*
X26733333Y-36035295D01*
X26733333Y-36035295D02*
X26733333Y-36130533D01*
X26733333Y-36130533D02*
X26685714Y-36273390D01*
X26685714Y-36273390D02*
X26114286Y-36844819D01*
X26114286Y-36844819D02*
X26733333Y-36844819D01*
X24066667Y-26637200D02*
X24209524Y-26684819D01*
X24209524Y-26684819D02*
X24447619Y-26684819D01*
X24447619Y-26684819D02*
X24542857Y-26637200D01*
X24542857Y-26637200D02*
X24590476Y-26589580D01*
X24590476Y-26589580D02*
X24638095Y-26494342D01*
X24638095Y-26494342D02*
X24638095Y-26399104D01*
X24638095Y-26399104D02*
X24590476Y-26303866D01*
X24590476Y-26303866D02*
X24542857Y-26256247D01*
X24542857Y-26256247D02*
X24447619Y-26208628D01*
X24447619Y-26208628D02*
X24257143Y-26161009D01*
X24257143Y-26161009D02*
X24161905Y-26113390D01*
X24161905Y-26113390D02*
X24114286Y-26065771D01*
X24114286Y-26065771D02*
X24066667Y-25970533D01*
X24066667Y-25970533D02*
X24066667Y-25875295D01*
X24066667Y-25875295D02*
X24114286Y-25780057D01*
X24114286Y-25780057D02*
X24161905Y-25732438D01*
X24161905Y-25732438D02*
X24257143Y-25684819D01*
X24257143Y-25684819D02*
X24495238Y-25684819D01*
X24495238Y-25684819D02*
X24638095Y-25732438D01*
X24971429Y-25684819D02*
X25209524Y-26684819D01*
X25209524Y-26684819D02*
X25400000Y-25970533D01*
X25400000Y-25970533D02*
X25590476Y-26684819D01*
X25590476Y-26684819D02*
X25828572Y-25684819D01*
X26733333Y-26684819D02*
X26161905Y-26684819D01*
X26447619Y-26684819D02*
X26447619Y-25684819D01*
X26447619Y-25684819D02*
X26352381Y-25827676D01*
X26352381Y-25827676D02*
X26257143Y-25922914D01*
X26257143Y-25922914D02*
X26161905Y-25970533D01*
X52491905Y-55914819D02*
X52491905Y-54914819D01*
X52491905Y-54914819D02*
X52730000Y-54914819D01*
X52730000Y-54914819D02*
X52872857Y-54962438D01*
X52872857Y-54962438D02*
X52968095Y-55057676D01*
X52968095Y-55057676D02*
X53015714Y-55152914D01*
X53015714Y-55152914D02*
X53063333Y-55343390D01*
X53063333Y-55343390D02*
X53063333Y-55486247D01*
X53063333Y-55486247D02*
X53015714Y-55676723D01*
X53015714Y-55676723D02*
X52968095Y-55771961D01*
X52968095Y-55771961D02*
X52872857Y-55867200D01*
X52872857Y-55867200D02*
X52730000Y-55914819D01*
X52730000Y-55914819D02*
X52491905Y-55914819D01*
X54015714Y-55914819D02*
X53444286Y-55914819D01*
X53730000Y-55914819D02*
X53730000Y-54914819D01*
X53730000Y-54914819D02*
X53634762Y-55057676D01*
X53634762Y-55057676D02*
X53539524Y-55152914D01*
X53539524Y-55152914D02*
X53444286Y-55200533D01*
X43688095Y-32684819D02*
X43688095Y-33494342D01*
X43688095Y-33494342D02*
X43735714Y-33589580D01*
X43735714Y-33589580D02*
X43783333Y-33637200D01*
X43783333Y-33637200D02*
X43878571Y-33684819D01*
X43878571Y-33684819D02*
X44069047Y-33684819D01*
X44069047Y-33684819D02*
X44164285Y-33637200D01*
X44164285Y-33637200D02*
X44211904Y-33589580D01*
X44211904Y-33589580D02*
X44259523Y-33494342D01*
X44259523Y-33494342D02*
X44259523Y-32684819D01*
X45259523Y-33684819D02*
X44688095Y-33684819D01*
X44973809Y-33684819D02*
X44973809Y-32684819D01*
X44973809Y-32684819D02*
X44878571Y-32827676D01*
X44878571Y-32827676D02*
X44783333Y-32922914D01*
X44783333Y-32922914D02*
X44688095Y-32970533D01*
D11*
%TO.C,SW5*%
X28190000Y-71580000D02*
X28190000Y-70080000D01*
X26940000Y-67580000D02*
X22440000Y-67580000D01*
X21190000Y-70080000D02*
X21190000Y-71580000D01*
X22440000Y-74080000D02*
X26940000Y-74080000D01*
%TO.C,SW4*%
X28190000Y-61420000D02*
X28190000Y-59920000D01*
X26940000Y-57420000D02*
X22440000Y-57420000D01*
X21190000Y-59920000D02*
X21190000Y-61420000D01*
X22440000Y-63920000D02*
X26940000Y-63920000D01*
%TO.C,SW3*%
X28190000Y-51260000D02*
X28190000Y-49760000D01*
X26940000Y-47260000D02*
X22440000Y-47260000D01*
X21190000Y-49760000D02*
X21190000Y-51260000D01*
X22440000Y-53760000D02*
X26940000Y-53760000D01*
%TO.C,SW2*%
X28900000Y-41390000D02*
X28900000Y-39890000D01*
X27650000Y-37390000D02*
X23150000Y-37390000D01*
X21900000Y-39890000D02*
X21900000Y-41390000D01*
X23150000Y-43890000D02*
X27650000Y-43890000D01*
%TO.C,SW1*%
X23150000Y-33730000D02*
X27650000Y-33730000D01*
X21900000Y-29730000D02*
X21900000Y-31230000D01*
X27650000Y-27230000D02*
X23150000Y-27230000D01*
X28900000Y-31230000D02*
X28900000Y-29730000D01*
%TO.C,D1*%
X54902334Y-57341392D02*
G75*
G03*
X51670001Y-57184485I-1672334J-1078608D01*
G01*
X52189040Y-59499999D02*
G75*
G03*
X54271129Y-59499836I1040960J1079999D01*
G01*
X51670001Y-59655515D02*
G75*
G03*
X54902334Y-59498608I1559999J1235515D01*
G01*
X54271129Y-57340164D02*
G75*
G03*
X52189040Y-57340001I-1041129J-1079836D01*
G01*
X51670000Y-59500000D02*
X51670000Y-59656000D01*
X51670000Y-57184000D02*
X51670000Y-57340000D01*
%TO.C,U1*%
X49590000Y-34170000D02*
X39310000Y-34170000D01*
X49590000Y-52190000D02*
X49590000Y-34170000D01*
X39310000Y-52190000D02*
X49590000Y-52190000D01*
X47100000Y-34230000D02*
X45450000Y-34230000D01*
X41800000Y-34230000D02*
X41800000Y-52130000D01*
X41800000Y-52130000D02*
X47100000Y-52130000D01*
X43450000Y-34230000D02*
X41800000Y-34230000D01*
X39310000Y-34170000D02*
X39310000Y-52190000D01*
X47100000Y-52130000D02*
X47100000Y-34230000D01*
X43450000Y-34230000D02*
G75*
G03*
X45450000Y-34230000I1000000J0D01*
G01*
%TD*%
M02*
